<svg width="1097" height="459" xmlns="http://www.w3.org/2000/svg" xmlns:xlink="http://www.w3.org/1999/xlink" overflow="hidden"><defs><clipPath id="clip0"><path d="M58 114 1155 114 1155 573 58 573Z" fill-rule="evenodd" clip-rule="evenodd"/></clipPath><clipPath id="clip1"><path d="M468 166 519 166 519 217 468 217Z" fill-rule="evenodd" clip-rule="evenodd"/></clipPath><clipPath id="clip2"><path d="M468 166 519 166 519 217 468 217Z" fill-rule="evenodd" clip-rule="evenodd"/></clipPath><clipPath id="clip3"><path d="M468 166 519 166 519 217 468 217Z" fill-rule="evenodd" clip-rule="evenodd"/></clipPath><clipPath id="clip4"><path d="M468 521 519 521 519 572 468 572Z" fill-rule="evenodd" clip-rule="evenodd"/></clipPath><clipPath id="clip5"><path d="M468 521 519 521 519 572 468 572Z" fill-rule="evenodd" clip-rule="evenodd"/></clipPath><clipPath id="clip6"><path d="M468 521 519 521 519 572 468 572Z" fill-rule="evenodd" clip-rule="evenodd"/></clipPath><clipPath id="clip7"><path d="M385 345 436 345 436 395 385 395Z" fill-rule="evenodd" clip-rule="evenodd"/></clipPath><clipPath id="clip8"><path d="M385 345 436 345 436 395 385 395Z" fill-rule="evenodd" clip-rule="evenodd"/></clipPath><clipPath id="clip9"><path d="M385 345 436 345 436 395 385 395Z" fill-rule="evenodd" clip-rule="evenodd"/></clipPath><clipPath id="clip10"><path d="M1020 521 1071 521 1071 572 1020 572Z" fill-rule="evenodd" clip-rule="evenodd"/></clipPath><clipPath id="clip11"><path d="M1020 521 1071 521 1071 572 1020 572Z" fill-rule="evenodd" clip-rule="evenodd"/></clipPath><clipPath id="clip12"><path d="M1020 521 1071 521 1071 572 1020 572Z" fill-rule="evenodd" clip-rule="evenodd"/></clipPath><clipPath id="clip13"><path d="M1021 166 1071 166 1071 217 1021 217Z" fill-rule="evenodd" clip-rule="evenodd"/></clipPath><clipPath id="clip14"><path d="M1021 166 1071 166 1071 217 1021 217Z" fill-rule="evenodd" clip-rule="evenodd"/></clipPath><clipPath id="clip15"><path d="M1021 166 1071 166 1071 217 1021 217Z" fill-rule="evenodd" clip-rule="evenodd"/></clipPath><clipPath id="clip16"><path d="M1103 344 1154 344 1154 394 1103 394Z" fill-rule="evenodd" clip-rule="evenodd"/></clipPath><clipPath id="clip17"><path d="M1103 344 1154 344 1154 394 1103 394Z" fill-rule="evenodd" clip-rule="evenodd"/></clipPath><clipPath id="clip18"><path d="M1103 344 1154 344 1154 394 1103 394Z" fill-rule="evenodd" clip-rule="evenodd"/></clipPath><clipPath id="clip19"><path d="M534 236 685 236 685 388 534 388Z" fill-rule="evenodd" clip-rule="evenodd"/></clipPath><clipPath id="clip20"><path d="M534 236 685 236 685 388 534 388Z" fill-rule="evenodd" clip-rule="evenodd"/></clipPath><clipPath id="clip21"><path d="M534 236 685 236 685 388 534 388Z" fill-rule="evenodd" clip-rule="evenodd"/></clipPath></defs><g clip-path="url(#clip0)" transform="translate(-58 -114)"><path d="M390 340.5C390 219.273 488.273 121 609.5 121 730.726 121 829 219.273 829 340.5 829 461.726 730.726 560 609.5 560 488.273 560 390 461.726 390 340.5Z" fill="#171748" fill-rule="evenodd" fill-opacity="0.301961"/><text fill="#FFFFFF" font-family="Arial,Arial_MSFontService,sans-serif" font-weight="700" font-size="43" transform="translate(471.201 413)">ParticleModel</text><rect x="149.5" y="118.5" width="370" height="98" stroke="#171748" stroke-miterlimit="8" fill="#171748"/><text fill="#FFFFFF" font-family="Arial,Arial_MSFontService,sans-serif" font-weight="700" font-size="27" transform="translate(157.972 149)">DATA STORAGE<tspan x="0" y="32">MODULE</tspan></text><rect x="149.5" y="473.5" width="370" height="99" stroke="#171748" stroke-miterlimit="8" fill="#171748"/><text fill="#FFFFFF" font-family="Arial,Arial_MSFontService,sans-serif" font-weight="700" font-size="27" transform="translate(157.972 504)">REFERENCE MODEL<tspan x="0" y="32">MODULE</tspan></text><g clip-path="url(#clip1)"><g clip-path="url(#clip2)"><g clip-path="url(#clip3)"><path d="M508.375 175.563C508.375 177.91 501.715 179.813 493.5 179.813 485.285 179.813 478.625 177.91 478.625 175.563 478.625 173.215 485.285 171.313 493.5 171.313 501.715 171.313 508.375 173.215 508.375 175.563Z" fill="#FFFFFF"/><path d="M504.125 186.188C503.487 186.188 503.063 185.762 503.063 185.125 503.063 184.488 503.487 184.063 504.125 184.063 504.763 184.063 505.188 184.488 505.188 185.125 505.188 185.762 504.763 186.188 504.125 186.188ZM493.5 181.938C485.319 181.938 478.625 180.025 478.625 177.688L478.625 186.188C478.625 188.525 485.319 190.438 493.5 190.438 501.681 190.438 508.375 188.525 508.375 186.188L508.375 177.688C508.375 180.025 501.681 181.938 493.5 181.938Z" fill="#FFFFFF"/><path d="M504.125 196.813C503.487 196.813 503.063 196.387 503.063 195.75 503.063 195.113 503.487 194.688 504.125 194.688 504.763 194.688 505.188 195.113 505.188 195.75 505.188 196.387 504.763 196.813 504.125 196.813ZM493.5 192.563C485.319 192.563 478.625 190.65 478.625 188.313L478.625 196.813C478.625 199.15 485.319 201.063 493.5 201.063 501.681 201.063 508.375 199.15 508.375 196.813L508.375 188.313C508.375 190.65 501.681 192.563 493.5 192.563Z" fill="#FFFFFF"/><path d="M504.125 207.438C503.487 207.438 503.063 207.012 503.063 206.375 503.063 205.738 503.487 205.313 504.125 205.313 504.763 205.313 505.188 205.738 505.188 206.375 505.188 207.012 504.763 207.438 504.125 207.438ZM493.5 203.188C485.319 203.188 478.625 201.275 478.625 198.938L478.625 207.438C478.625 209.775 485.319 211.688 493.5 211.688 501.681 211.688 508.375 209.775 508.375 207.438L508.375 198.938C508.375 201.275 501.681 203.188 493.5 203.188Z" fill="#FFFFFF"/></g></g></g><g clip-path="url(#clip4)"><g clip-path="url(#clip5)"><g clip-path="url(#clip6)"><path d="M480.219 564.563 480.219 528.438 493.5 528.438 493.5 539.594 506.781 539.594 506.781 564.563 480.219 564.563ZM496.688 529.766 503.328 536.406 496.688 536.406 496.688 529.766ZM496.688 525.25 477.031 525.25 477.031 567.75 509.969 567.75 509.969 536.938 496.688 525.25Z" fill="#FFFFFF"/><path d="M483.406 544.906 503.594 544.906 503.594 547.031 483.406 547.031Z" fill="#FFFFFF"/><path d="M483.406 540.656 490.313 540.656 490.313 542.781 483.406 542.781Z" fill="#FFFFFF"/><path d="M483.406 549.156 503.594 549.156 503.594 551.281 483.406 551.281Z" fill="#FFFFFF"/><path d="M483.406 553.406 503.594 553.406 503.594 555.531 483.406 555.531Z" fill="#FFFFFF"/><path d="M483.406 557.656 503.594 557.656 503.594 559.781 483.406 559.781Z" fill="#FFFFFF"/></g></g></g><rect x="65.5001" y="297.5" width="371" height="98" stroke="#171748" stroke-miterlimit="8" fill="#171748"/><text fill="#FFFFFF" font-family="Arial,Arial_MSFontService,sans-serif" font-weight="700" font-size="27" transform="translate(74.8134 328)">PROCESS CONTROL<tspan x="0" y="32">MODULE</tspan></text><g clip-path="url(#clip7)"><g clip-path="url(#clip8)"><g clip-path="url(#clip9)"><path d="M40.8854 9.11458 40.3646 4.42708 34.6354 10.1563 34.9479 12.8646 26.6146 21.1979C25.8854 20.8333 25.0521 20.5729 24.1667 20.5729 21.3021 20.5729 18.9583 22.9167 18.9583 25.7812 18.9583 28.6458 21.3021 30.9896 24.1667 30.9896 27.0313 30.9896 29.375 28.6458 29.375 25.7812 29.375 24.8958 29.1667 24.1146 28.8021 23.3854L37.1354 15.0521 39.8438 15.3646 45.5729 9.63542 40.8854 9.11458Z" fill="#FFFFFF" transform="matrix(1.02 0 -0 1 385 345)"/><path d="M41.3021 16.8229 40.625 17.5521 39.6354 17.4479 38.5417 17.2917C40 19.7917 40.8854 22.6563 40.8854 25.7812 40.8854 34.9479 33.3854 42.4479 24.2188 42.4479 15.0521 42.4479 7.55208 34.9479 7.55208 25.7812 7.55208 16.6146 15.0521 9.11458 24.2188 9.11458 27.2917 9.11458 30.2083 9.94792 32.7083 11.4583L32.6042 10.4167 32.4479 9.375 33.1771 8.64583 33.5417 8.28125C30.7292 6.82292 27.6042 5.98958 24.2188 5.98958 13.2812 5.98958 4.42708 14.8437 4.42708 25.7812 4.42708 36.7188 13.2812 45.5729 24.2188 45.5729 35.1563 45.5729 44.0104 36.7188 44.0104 25.7812 44.0104 22.3958 43.1771 19.2708 41.6667 16.5104L41.3021 16.8229Z" fill="#FFFFFF" transform="matrix(1.02 0 -0 1 385 345)"/><path d="M32.9167 22.2396C33.3854 23.3333 33.5938 24.5312 33.5938 25.7812 33.5938 30.9375 29.375 35.1563 24.2188 35.1563 19.0625 35.1563 14.8437 30.9375 14.8437 25.7812 14.8437 20.625 19.0625 16.4063 24.2188 16.4063 25.4688 16.4063 26.6667 16.6667 27.7604 17.0833L30.1042 14.7396C28.3333 13.8021 26.3542 13.2812 24.2188 13.2812 17.3437 13.2812 11.7188 18.9062 11.7188 25.7812 11.7188 32.6563 17.3437 38.2813 24.2188 38.2813 31.0938 38.2813 36.7188 32.6563 36.7188 25.7812 36.7188 23.6458 36.1979 21.6667 35.2604 19.8958L32.9167 22.2396Z" fill="#FFFFFF" transform="matrix(1.02 0 -0 1 385 345)"/></g></g></g><rect x="700.5" y="473.5" width="371" height="99" stroke="#171748" stroke-miterlimit="8" fill="#171748"/><text fill="#FFFFFF" font-family="Arial,Arial_MSFontService,sans-serif" font-weight="700" font-size="27" transform="translate(709.893 504)">DESIGN OF EXPERIMENTS<tspan x="0" y="32">MODULE</tspan></text><g clip-path="url(#clip10)"><g clip-path="url(#clip11)"><g clip-path="url(#clip12)"><path d="M1032.22 528.438 1058.78 528.438 1058.78 564.563 1032.22 564.563 1032.22 528.438ZM1029.03 567.75 1061.97 567.75 1061.97 525.25 1029.03 525.25 1029.03 567.75Z" fill="#FFFFFF"/><path d="M1035.41 533.219 1044.44 533.219 1044.44 535.344 1035.41 535.344Z" fill="#FFFFFF"/><path d="M1035.41 541.719 1044.44 541.719 1044.44 543.844 1035.41 543.844Z" fill="#FFFFFF"/><path d="M1035.41 558.719 1044.44 558.719 1044.44 560.844 1035.41 560.844Z" fill="#FFFFFF"/><path d="M1035.41 550.219 1044.44 550.219 1044.44 552.344 1035.41 552.344Z" fill="#FFFFFF"/><path d="M1055.59 532.05 1054.11 530.563 1050.6 534.069 1049.22 532.688 1047.73 534.175 1050.6 537.044Z" fill="#FFFFFF"/><path d="M1055.59 540.55 1054.11 539.063 1050.6 542.569 1049.22 541.188 1047.73 542.675 1050.6 545.544Z" fill="#FFFFFF"/><path d="M1055.59 549.05 1054.11 547.563 1050.6 551.069 1049.22 549.688 1047.73 551.175 1050.6 554.044Z" fill="#FFFFFF"/><path d="M1055.59 557.444 1054.11 555.956 1050.6 559.463 1049.22 558.081 1047.73 559.569 1050.6 562.438Z" fill="#FFFFFF"/></g></g></g><rect x="701.5" y="118.5" width="370" height="98" stroke="#171748" stroke-miterlimit="8" fill="#171748"/><text fill="#FFFFFF" font-family="Arial,Arial_MSFontService,sans-serif" font-weight="700" font-size="27" transform="translate(710.252 149)">DOMAIN<tspan x="0" y="32">MODULE</tspan></text><g clip-path="url(#clip13)"><g clip-path="url(#clip14)"><g clip-path="url(#clip15)"><path d="M27.8646 41.4063C31.25 37.2396 35 31.9792 35.3646 26.0417L41.6146 26.0417C41.1458 33.8021 35.3646 40.1042 27.8646 41.4063ZM8.38542 26.0417 14.6354 26.0417C15.0521 31.9792 18.75 37.2396 22.1354 41.4063 14.6354 40.1042 8.85417 33.8021 8.38542 26.0417ZM22.1354 8.59375C18.75 12.7604 15 18.0208 14.6354 23.9583L8.38542 23.9583C8.85417 16.1979 14.6354 9.89583 22.1354 8.59375ZM26.0417 26.0417 33.2813 26.0417C32.8646 31.4062 29.375 36.25 26.0417 40.3646L26.0417 26.0417ZM23.9583 26.0417 23.9583 40.3646C20.625 36.25 17.1354 31.4062 16.7187 26.0417L23.9583 26.0417ZM26.0417 9.63542C29.375 13.75 32.8646 18.5417 33.2813 23.9583L26.0417 23.9583 26.0417 9.63542ZM23.9583 23.9583 16.7187 23.9583C17.1354 18.5938 20.625 13.75 23.9583 9.63542L23.9583 23.9583ZM41.6146 23.9583 35.3646 23.9583C35 18.0208 31.25 12.7604 27.8646 8.59375 35.3646 9.89583 41.1458 16.1979 41.6146 23.9583ZM25 5.20833C14.0625 5.20833 5.20833 14.0625 5.20833 25 5.20833 35.9375 14.0625 44.7917 25 44.7917 35.9375 44.7917 44.7917 35.9375 44.7917 25 44.7917 14.0625 35.9375 5.20833 25 5.20833Z" fill="#FFFFFF" transform="matrix(1 0 -0 1.02 1021 166)"/></g></g></g><rect x="784.5" y="296.5" width="370" height="98" stroke="#171748" stroke-miterlimit="8" fill="#171748"/><text fill="#FFFFFF" font-family="Arial,Arial_MSFontService,sans-serif" font-weight="700" font-size="27" transform="translate(793.003 327)">HYBRID MODEL<tspan x="0" y="32">MODULE</tspan></text><g clip-path="url(#clip16)"><g clip-path="url(#clip17)"><g clip-path="url(#clip18)"><path d="M30.8854 19.4271C28.6979 19.4271 26.9792 17.6563 26.9792 15.5208 26.9792 13.3854 28.75 11.6146 30.8854 11.6146 33.0729 11.6146 34.7917 13.3854 34.7917 15.5208 34.7917 17.6563 33.0208 19.4271 30.8854 19.4271ZM39.6875 13.0729C39.4792 12.3438 39.2188 11.6667 38.8542 11.0417L39.6875 8.59375 37.8125 6.71875 35.3646 7.55208C34.7396 7.1875 34.0625 6.92708 33.3333 6.71875L32.1875 4.42708 29.5833 4.42708 28.4375 6.71875C27.7083 6.92708 27.0313 7.1875 26.4063 7.55208L23.9583 6.71875 22.0833 8.59375 22.9167 11.0417C22.5521 11.6667 22.2917 12.3438 22.0833 13.0729L19.7917 14.2187 19.7917 16.8229 22.0833 17.9688C22.2917 18.6979 22.5521 19.375 22.9167 20L22.0833 22.4479 23.9063 24.2708 26.3542 23.4375C26.9792 23.8021 27.6562 24.0625 28.3854 24.2708L29.5313 26.5625 32.1354 26.5625 33.2813 24.2708C34.0104 24.0625 34.6875 23.8021 35.3125 23.4375L37.7604 24.2708 39.6354 22.4479 38.8021 20C39.1667 19.375 39.4792 18.6458 39.6875 17.9688L41.9792 16.8229 41.9792 14.2187 39.6875 13.0729Z" fill="#FFFFFF" transform="matrix(1.02 0 -0 1 1103 344)"/><path d="M19.1146 38.3854C16.9271 38.3854 15.2083 36.6146 15.2083 34.4792 15.2083 32.2917 16.9792 30.5729 19.1146 30.5729 21.3021 30.5729 23.0208 32.3437 23.0208 34.4792 23.0208 36.6146 21.3021 38.3854 19.1146 38.3854L19.1146 38.3854ZM27.0833 30 27.9167 27.5521 26.0417 25.6771 23.5937 26.5104C22.9687 26.1458 22.2396 25.8854 21.5625 25.6771L20.4167 23.3854 17.8125 23.3854 16.6667 25.6771C15.9375 25.8854 15.2604 26.1458 14.6354 26.5104L12.1875 25.6771 10.3646 27.5 11.1458 29.9479C10.7813 30.5729 10.5208 31.3021 10.3125 31.9792L8.02083 33.125 8.02083 35.7292 10.3125 36.875C10.5208 37.6042 10.7813 38.2813 11.1458 38.9062L10.3646 41.3542 12.1875 43.1771 14.6354 42.3958C15.2604 42.7604 15.9375 43.0208 16.6667 43.2292L17.8125 45.5208 20.4167 45.5208 21.5625 43.2292C22.2917 43.0208 22.9687 42.7604 23.5937 42.3958L26.0417 43.2292 27.8646 41.3542 27.0833 38.9583C27.4479 38.3333 27.7083 37.6563 27.9167 36.9271L30.2083 35.7812 30.2083 33.1771 27.9167 32.0313C27.7083 31.3021 27.4479 30.625 27.0833 30Z" fill="#FFFFFF" transform="matrix(1.02 0 -0 1 1103 344)"/></g></g></g><g clip-path="url(#clip19)"><g clip-path="url(#clip20)"><g clip-path="url(#clip21)"><path d="M120.643 97.9927 113.565 93.9031 119.07 92.4875C120.8 92.0156 121.744 90.2854 121.272 88.7125 120.8 87.1396 119.07 86.0385 117.497 86.5104L105.857 89.6563 101.296 86.9823 115.452 83.2073C117.182 82.7354 118.126 81.0052 117.654 79.4323 117.182 77.8594 115.452 76.7583 113.879 77.2302L93.5885 82.5781 87.6115 79.1177C87.926 78.0167 88.0833 76.9156 88.0833 75.8146 88.0833 74.7135 87.926 73.4552 87.6115 72.5115L93.5885 69.051 113.879 74.399C114.194 74.399 114.351 74.5563 114.666 74.5563 116.081 74.5563 117.34 73.6125 117.654 72.1969 118.126 70.4667 117.182 68.7365 115.452 68.4219L101.296 64.6469 105.857 61.9729 117.497 65.1188C117.811 65.1188 117.969 65.276 118.283 65.276 119.699 65.276 120.957 64.3323 121.272 62.9167 121.744 61.1865 120.8 59.4562 119.07 59.1417L113.565 57.726 120.643 53.6365C122.216 52.6927 122.688 50.8052 121.744 49.3896 120.8 47.8167 118.912 47.3448 117.497 48.2885L110.419 52.3781 111.834 46.8729C112.306 45.1427 111.363 43.4125 109.632 43.0979 107.902 42.626 106.172 43.5698 105.857 45.3L102.711 56.9396 98.15 59.6135 101.925 45.4573C102.397 43.7271 101.453 41.9969 99.7229 41.6823 97.9927 41.2104 96.2625 42.1542 95.9479 43.8844L90.6 64.175 84.6229 67.6354C83.05 66.0625 81.0052 64.8042 78.8031 64.3323L78.8031 57.4115 93.5885 42.626C94.8469 41.3677 94.8469 39.4802 93.5885 38.2219 92.3302 36.9635 90.4427 36.9635 89.1844 38.2219L78.6458 47.5021 78.6458 42.3115 87.1396 33.8177C88.3979 32.5594 88.3979 30.6719 87.1396 29.4135 85.8812 28.1552 83.9938 28.1552 82.7354 29.4135L78.6458 33.3458 78.6458 25.1667C78.6458 23.4365 77.2302 22.0208 75.5 22.0208 73.7698 22.0208 72.3542 23.4365 72.3542 25.1667L72.3542 33.3458 68.2646 29.2563C67.0062 27.9979 65.1188 27.9979 63.8604 29.2563 62.6021 30.5146 62.6021 32.4021 63.8604 33.6604L72.3542 42.1542 72.3542 47.3448 61.9729 36.9635C60.7146 35.7052 58.8271 35.7052 57.5687 36.9635 56.3104 38.2219 56.3104 40.1094 57.5687 41.3677L72.3542 56.1531 72.3542 63.074C70.1521 63.7031 68.1073 64.8042 66.5344 66.3771L60.5573 62.9167 55.0521 42.9406C54.5802 41.2104 52.85 40.2667 51.2771 40.7385 49.5469 41.2104 48.6031 42.9406 49.075 44.5135L52.85 58.6698 48.2885 55.9958 45.1427 44.3563C44.6708 42.626 42.9406 41.6823 41.3677 42.1542 39.6375 42.626 38.6937 44.3563 39.1656 45.9292L40.5812 51.4344 33.5031 47.3448C31.9302 46.401 30.0427 47.0302 29.2563 48.4458 28.3125 50.0187 28.9417 51.9063 30.3573 52.6927L37.4354 56.7823 31.9302 58.1979C30.2 58.6698 29.2563 60.4 29.7281 61.9729 30.0427 63.3885 31.301 64.3323 32.7167 64.3323 33.0313 64.3323 33.1885 64.3323 33.5031 64.175L45.1427 61.0292 49.7042 63.7031 35.5479 67.4781C33.8177 67.95 32.874 69.6802 33.3458 71.2531 33.6604 72.6687 34.9188 73.6125 36.3344 73.6125 36.649 73.6125 36.8062 73.6125 37.1208 73.4552L57.4115 68.1073 63.3885 71.5677C63.074 73.1406 62.9167 74.399 62.9167 75.5 62.9167 76.601 63.074 77.8594 63.3885 78.8031L57.4115 82.2635 37.1208 76.9156C35.3906 76.4437 33.6604 77.3875 33.3458 79.1177 33.0313 80.8479 33.8177 82.5781 35.5479 82.8927L49.7042 86.6677 45.1427 89.3417 33.5031 86.1958C31.7729 85.724 30.0427 86.6677 29.7281 88.3979 29.4135 90.1281 30.2 91.8583 31.9302 92.1729L37.4354 93.5885 30.3573 97.6781C28.7844 98.6219 28.3125 100.509 29.2563 101.925 29.8854 102.869 30.8292 103.498 31.9302 103.498 32.4021 103.498 33.0313 103.341 33.5031 103.026L40.5812 98.9365 39.1656 104.442C38.6937 106.172 39.6375 107.902 41.3677 108.217 41.6823 108.217 41.8396 108.374 42.1542 108.374 43.5698 108.374 44.8281 107.43 45.1427 106.015L48.2885 94.375 52.85 91.701 49.075 105.857C48.6031 107.588 49.5469 109.318 51.2771 109.632 51.5917 109.632 51.749 109.79 52.0635 109.79 53.4792 109.79 54.7375 108.846 55.0521 107.43L60.4 87.1396 66.3771 83.6792C67.95 85.2521 69.9948 86.5104 72.1969 86.9823L72.1969 93.9031 57.4115 108.689C56.1531 109.947 56.1531 111.834 57.4115 113.093 58.6698 114.351 60.5573 114.351 61.8156 113.093L72.1969 102.711 72.1969 107.902 63.7031 116.396C62.4448 117.654 62.4448 119.542 63.7031 120.8 64.9615 122.058 66.849 122.058 68.1073 120.8L72.1969 116.71 72.1969 125.833C72.1969 127.564 73.6125 128.979 75.3427 128.979 77.0729 128.979 78.4885 127.564 78.4885 125.833L78.4885 117.654 82.5781 121.744C83.3646 122.373 84.151 122.688 84.9375 122.688 85.724 122.688 86.5104 122.373 87.1396 121.744 88.3979 120.485 88.3979 118.598 87.1396 117.34L78.6458 108.846 78.6458 103.655 89.0271 114.036C89.6563 114.508 90.4427 114.823 91.2292 114.823 92.0156 114.823 92.8021 114.508 93.4313 113.879 94.6896 112.621 94.6896 110.733 93.4313 109.475L78.6458 94.6896 78.6458 87.7687C80.8479 87.1396 82.8927 86.0385 84.4656 84.4656L90.4427 87.926 95.9479 108.059C96.2625 109.475 97.5208 110.419 98.9365 110.419 99.251 110.419 99.4083 110.419 99.7229 110.261 101.453 109.79 102.397 108.059 101.925 106.486L98.15 92.3302 102.711 95.0042 105.857 106.644C106.172 108.059 107.43 109.003 108.846 109.003 109.16 109.003 109.318 109.003 109.632 108.846 111.363 108.374 112.306 106.644 111.834 105.071L110.419 99.5656 117.497 103.655C117.969 103.97 118.598 104.127 119.07 104.127 120.171 104.127 121.272 103.498 121.744 102.554 122.688 100.667 122.216 98.7792 120.643 97.9927Z" fill="#FFFFFF" transform="matrix(1 0 -0 1.00662 534 236)"/></g></g></g></g></svg>
